<?xml version="1.0" encoding="iso-8859-1"?>
<!-- Generator: Adobe Illustrator 19.0.0, SVG Export Plug-In . SVG Version: 6.00 Build 0)  -->
<svg version="1.1" id="Layer_1" xmlns="http://www.w3.org/2000/svg" xmlns:xlink="http://www.w3.org/1999/xlink" x="0px" y="0px"
	 viewBox="0 0 512 512" style="enable-background:new 0 0 512 512;" xml:space="preserve">
<path style="fill:#7DDCD4;" d="M511.987,257.1c0.001-0.367,0.013-0.731,0.013-1.1C512,114.615,397.384,0,256,0S0,114.615,0,256
	c0,117.217,78.782,216.029,186.283,246.388L511.987,257.1z"/>
<path style="fill:#40D2BE;" d="M511.987,257.1l-73.448-73.448l-109.635,11.687L256,122.435L73.461,389.565l112.823,112.823
	C208.449,508.646,231.832,512,256,512C397.017,512,511.392,397.978,511.987,257.1z"/>
<polygon style="fill:#FEF2CC;" points="347.27,183.652 307.828,289.391 347.27,389.565 438.539,389.565 438.539,183.652 "/>
<polygon style="fill:#FFFFFF;" points="347.27,183.652 233.739,183.652 256,389.565 347.27,389.565 "/>
<polygon style="fill:#B0B7B6;" points="347.27,256 336.139,289.391 416.278,278.261 416.278,256 "/>
<polygon style="fill:#C3C9C8;" points="347.27,256 278.261,256 278.261,278.261 347.27,289.391 "/>
<polygon style="fill:#4C6460;" points="347.27,278.261 336.139,311.652 416.278,300.522 416.278,278.261 "/>
<polygon style="fill:#616F6D;" points="347.27,278.261 278.261,278.261 278.261,300.522 347.27,311.652 "/>
<polygon style="fill:#394B48;" points="347.27,300.522 336.139,333.913 416.278,322.783 416.278,300.522 "/>
<g>
	<polygon style="fill:#4C6460;" points="347.27,300.522 278.261,300.522 278.261,322.783 347.27,333.913 	"/>
	<polygon style="fill:#4C6460;" points="347.27,322.783 336.139,356.174 416.278,345.043 416.278,322.783 	"/>
</g>
<polygon style="fill:#616F6D;" points="347.27,322.783 278.261,322.783 278.261,345.043 347.27,356.174 "/>
<polygon style="fill:#394B48;" points="347.27,345.043 336.139,378.435 416.278,367.304 416.278,345.043 "/>
<polygon style="fill:#4C6460;" points="347.27,345.043 278.261,345.043 278.261,367.304 347.27,378.435 "/>
<polygon style="fill:#FEF2CC;" points="164.73,122.435 125.289,256 164.73,389.565 256,389.565 256,122.435 "/>
<rect x="73.461" y="122.435" style="fill:#FFFFFF;" width="91.27" height="267.13"/>
<polygon style="fill:#02C8A7;" points="164.73,144.696 153.6,222.609 198.122,211.478 198.122,144.696 "/>
<polygon style="fill:#7DDCD4;" points="164.73,144.696 131.339,144.696 131.339,211.478 164.73,222.609 "/>
<rect x="131.339" y="211.478" style="fill:#FBD867;" width="66.783" height="22.261"/>
<polygon style="fill:#02C8A7;" points="164.73,256 153.6,333.913 198.122,322.783 198.122,256 "/>
<polygon style="fill:#7DDCD4;" points="164.73,256 131.339,256 131.339,322.783 164.73,333.913 "/>
<rect x="131.339" y="322.783" style="fill:#FBD867;" width="66.783" height="22.261"/>
<polygon style="fill:#4C6460;" points="347.27,367.304 328.578,378.435 347.27,389.565 416.278,389.565 416.278,367.304 "/>
<rect x="278.261" y="367.304" style="fill:#616F6D;" width="69.009" height="22.261"/>
<g>
</g>
<g>
</g>
<g>
</g>
<g>
</g>
<g>
</g>
<g>
</g>
<g>
</g>
<g>
</g>
<g>
</g>
<g>
</g>
<g>
</g>
<g>
</g>
<g>
</g>
<g>
</g>
<g>
</g>
</svg>
