<svg height="512" viewBox="0 0 64 64" width="512" xmlns="http://www.w3.org/2000/svg"><g id="Flat"><g id="Color"><g><path d="m57 34h-50v-25l25-2 25 2z" fill="#d0d8da"/><path d="m27 29a14 14 0 0 1 -14-14v-1.724l19-3.276 25 4.31v-5.31l-25-2-25 2v25h50v-5z" fill="#93999a"/><path d="m7 34h50v26h-50z" fill="#93999a"/><path d="m57 35v-1h-50v26h50v-5h-21a16 16 0 0 1 -16-16v-1z" fill="#656b76"/><path d="m61 13-29-5-29 5v-5l29-5 29 5z" fill="#f9e109"/><path d="m3 10v3l29-5 29 5v-3l-29-5z" fill="#fcbc04"/><g><path d="m14 16a2 2 0 0 1 2 2v16a0 0 0 0 1 0 0h-4a0 0 0 0 1 0 0v-16a2 2 0 0 1 2-2z" fill="#fcbc04"/><path d="m30 30h4v4h-4z" fill="#fcbc04"/><path d="m16 24h18v6h-18z" fill="#f9e109"/><g fill="#84d2f4"><path d="m20 20a3 3 0 0 1 3 3v1a0 0 0 0 1 0 0h-6a0 0 0 0 1 0 0v-1a3 3 0 0 1 3-3z"/><path d="m27 13h5v6h-5z"/><path d="m32 13h5v6h-5z"/><g><path d="m47 16h6v18h-6z"/><path d="m41 16h6v18h-6z"/></g></g><path d="m37 19h-5v-6z" fill="#57b7eb"/><path d="m32 19h-5v-6z" fill="#57b7eb"/><path d="m47 16v18h6v-18zm4 15a2 2 0 0 1 -2-2v-11a2 2 0 0 1 2 2z" fill="#57b7eb"/><path d="m41 16v18h6v-18zm4 15a2 2 0 0 1 -2-2v-11a2 2 0 0 1 2 2z" fill="#57b7eb"/><path d="m19 24h-3v6h18v-3h-12a3 3 0 0 1 -3-3z" fill="#fcbc04"/><path d="m31 33a2 2 0 0 1 2-2h1v-1h-4v4h1z" fill="#e59730"/><path d="m14 21v-5a2 2 0 0 0 -2 2v16h4v-10.184a2.99 2.99 0 0 1 -2-2.816z" fill="#e59730"/><path d="m20 21a2.962 2.962 0 0 1 .178-.982c-.06 0-.117-.018-.178-.018a3 3 0 0 0 -3 3v1h6a3 3 0 0 1 -3-3z" fill="#57b7eb"/><path d="m46 16h2v18h-2z" fill="#d0d8da"/><path d="m49 26h-4a1 1 0 0 1 0-2h4a1 1 0 0 1 0 2z" fill="#fcbc04"/></g><g><path d="m13.5 48a1 1 0 0 1 -.969-.758l-1-4a1 1 0 1 1 1.94-.484l1 4a1 1 0 0 1 -.727 1.212 1.025 1.025 0 0 1 -.244.03z" fill="#fcbc04"/><path d="m14.5 48a1 1 0 0 1 -.949-1.316l1-3a1 1 0 0 1 1.9.632l-1 3a1 1 0 0 1 -.951.684z" fill="#f9e109"/><path d="m12 50h20v4h-20z" fill="#f9e109"/><path d="m17 60h-2l-1-6h4z" fill="#fcbc04"/><path d="m29 60h-2l-1-6h4z" fill="#fcbc04"/><path d="m24 42h6a2 2 0 0 1 2 2v4a2 2 0 0 1 -2 2h-8a0 0 0 0 1 0 0v-6a2 2 0 0 1 2-2z" fill="#e9f1f2"/><path d="m22 46a0 0 0 0 1 0 0v4a0 0 0 0 1 0 0h-4a0 0 0 0 1 0 0 4 4 0 0 1 4-4z" fill="#d0d8da"/><path d="m14 50h-2v4h20v-2h-16a2 2 0 0 1 -2-2z" fill="#fcbc04"/><path d="m29.831 55.017.169-1.017h-4l1 6h1v-3a1.993 1.993 0 0 1 1.831-1.983z" fill="#e59730"/><path d="m17.831 55.017.169-1.017h-4l1 6h1v-3a1.993 1.993 0 0 1 1.831-1.983z" fill="#e59730"/><path d="m25 42h-1a2 2 0 0 0 -2 2v6h8a2 2 0 0 0 2-2h-1a6 6 0 0 1 -6-6z" fill="#d0d8da"/><path d="m12 46h4v4h-4z" fill="#84d2f4"/><path d="m13 46h-1v4h4v-1a3 3 0 0 1 -3-3z" fill="#57b7eb"/></g><path d="m39 42h13v18h-13z" fill="#f9e109"/><path d="m39 42v18h13v-18zm11 15a9 9 0 0 1 -9-9v-4h6a3 3 0 0 1 3 3z" fill="#fcbc04"/><path d="m19 49h-.859a3.977 3.977 0 0 0 -.141 1h4v-4a3 3 0 0 1 -3 3z" fill="#93999a"/><circle cx="27" cy="46" fill="#f9e109" r="1"/><circle cx="48" cy="51" fill="#4891d3" r="1"/></g></g></g></svg>