<svg id="Flat" height="512" viewBox="0 0 512 512" width="512" xmlns="http://www.w3.org/2000/svg"><path d="m440 488h-368v-296l184-136 184 136z" fill="#bbdefb"/><path d="m72 192v26.823l184-138 184 138v-26.823l-184-136z" fill="#9ec1d8"/><path d="m468.361 220.094-212.361-159.271-212.361 159.271-19.639-26.186 222.181-166.635a16.365 16.365 0 0 1 19.638 0l222.181 166.635z" fill="#42210b"/><path d="m120 440h272v16h-272z" fill="#603813"/><path d="m200 248.533h112a24 24 0 0 1 24 24v47.467a0 0 0 0 1 0 0h-160a0 0 0 0 1 0 0v-47.467a24 24 0 0 1 24-24z" fill="#8c6239"/><path d="m368 416h-224l-16-128h256z" fill="#b0bec5"/><circle cx="256" cy="352" fill="#f5f5f5" r="24"/><circle cx="256" cy="208" fill="#f4cda5" r="40"/></svg>